<mxfile host="Electron" modified="2024-07-15T10:46:07.979Z" agent="Mozilla/5.0 (Windows NT 10.0; Win64; x64) AppleWebKit/537.36 (KHTML, like Gecko) draw.io/22.1.16 Chrome/120.0.6099.109 Electron/28.1.0 Safari/537.36" etag="qVFaTQKqXxIg6q72ci3q" version="22.1.16" type="device" pages="5">
  <diagram name="difficultySelection" id="ej1dVefqYXsf6kIaZEYO">
    <mxGraphModel dx="1793" dy="1045" grid="1" gridSize="10" guides="1" tooltips="1" connect="1" arrows="1" fold="1" page="1" pageScale="1" pageWidth="850" pageHeight="1100" math="0" shadow="0">
      <root>
        <mxCell id="0" />
        <mxCell id="1" parent="0" />
        <mxCell id="rTa7LTqlLrorRSVed1K8-1" value="if there is a game" style="verticalAlign=top;align=left;spacingTop=8;spacingLeft=2;spacingRight=12;shape=cube;size=10;direction=south;fontStyle=4;html=1;whiteSpace=wrap;" vertex="1" parent="1">
          <mxGeometry x="140" y="280" width="1590" height="140" as="geometry" />
        </mxCell>
        <mxCell id="rTa7LTqlLrorRSVed1K8-2" value="if game ended" style="verticalAlign=top;align=left;spacingTop=8;spacingLeft=2;spacingRight=12;shape=cube;size=10;direction=south;fontStyle=4;html=1;whiteSpace=wrap;" vertex="1" parent="1">
          <mxGeometry x="150" y="320" width="1550" height="80" as="geometry" />
        </mxCell>
        <mxCell id="XU4_op4EVZj-XPHD7sc--62" value="" style="html=1;verticalAlign=bottom;endArrow=block;curved=0;rounded=0;entryX=0.03;entryY=-0.009;entryDx=0;entryDy=0;entryPerimeter=0;" parent="1" source="XU4_op4EVZj-XPHD7sc--52" target="XU4_op4EVZj-XPHD7sc--61" edge="1">
          <mxGeometry width="80" relative="1" as="geometry">
            <mxPoint x="760" y="270" as="sourcePoint" />
            <mxPoint x="166.7741935483871" y="190" as="targetPoint" />
            <Array as="points">
              <mxPoint x="190" y="190" />
            </Array>
          </mxGeometry>
        </mxCell>
        <mxCell id="XU4_op4EVZj-XPHD7sc--66" value="retrieveTotal&lt;br&gt;Attempts()" style="html=1;verticalAlign=bottom;endArrow=block;curved=0;rounded=0;" parent="1" edge="1">
          <mxGeometry x="0.8804" y="-1" width="80" relative="1" as="geometry">
            <mxPoint x="735" y="599" as="sourcePoint" />
            <mxPoint x="1655" y="599" as="targetPoint" />
            <mxPoint as="offset" />
          </mxGeometry>
        </mxCell>
        <mxCell id="XU4_op4EVZj-XPHD7sc--67" value="enableSequence&lt;br&gt;CheckButton()" style="html=1;verticalAlign=bottom;endArrow=block;curved=0;rounded=0;" parent="1" edge="1">
          <mxGeometry x="0.8333" width="80" relative="1" as="geometry">
            <mxPoint x="375" y="698" as="sourcePoint" />
            <mxPoint x="1155" y="698" as="targetPoint" />
            <mxPoint as="offset" />
          </mxGeometry>
        </mxCell>
        <mxCell id="XU4_op4EVZj-XPHD7sc--68" value="applyDifficulty()" style="html=1;verticalAlign=bottom;endArrow=block;curved=0;rounded=0;" parent="1" edge="1">
          <mxGeometry x="0.8268" width="80" relative="1" as="geometry">
            <mxPoint x="375" y="628" as="sourcePoint" />
            <mxPoint x="1155" y="628" as="targetPoint" />
            <mxPoint as="offset" />
          </mxGeometry>
        </mxCell>
        <mxCell id="XU4_op4EVZj-XPHD7sc--64" value="showGameInfo()" style="html=1;verticalAlign=bottom;endArrow=block;curved=0;rounded=0;" parent="1" edge="1">
          <mxGeometry x="0.8333" width="80" relative="1" as="geometry">
            <mxPoint x="375" y="660" as="sourcePoint" />
            <mxPoint x="1155" y="660" as="targetPoint" />
            <mxPoint as="offset" />
          </mxGeometry>
        </mxCell>
        <mxCell id="XU4_op4EVZj-XPHD7sc--63" value="getDifficultyChosen()" style="html=1;verticalAlign=bottom;endArrow=block;curved=0;rounded=0;" parent="1" edge="1">
          <mxGeometry x="0.8077" y="-1" width="80" relative="1" as="geometry">
            <mxPoint x="375" y="530" as="sourcePoint" />
            <mxPoint x="1155" y="530" as="targetPoint" />
            <mxPoint as="offset" />
          </mxGeometry>
        </mxCell>
        <mxCell id="XU4_op4EVZj-XPHD7sc--59" value="select difficulty&lt;br&gt;and confirm" style="html=1;verticalAlign=bottom;endArrow=block;curved=0;rounded=0;exitX=0.5;exitY=0.5;exitDx=0;exitDy=0;exitPerimeter=0;" parent="1" source="bKO9Z_HtG4AWZGj5XjEJ-2" target="XU4_op4EVZj-XPHD7sc--33" edge="1">
          <mxGeometry x="0.8598" width="80" relative="1" as="geometry">
            <mxPoint x="710" y="340" as="sourcePoint" />
            <mxPoint x="790" y="340" as="targetPoint" />
            <mxPoint as="offset" />
          </mxGeometry>
        </mxCell>
        <mxCell id="bKO9Z_HtG4AWZGj5XjEJ-2" value="Decoder" style="shape=umlActor;verticalLabelPosition=bottom;verticalAlign=top;html=1;" parent="1" vertex="1">
          <mxGeometry x="70" y="120" width="30" height="60" as="geometry" />
        </mxCell>
        <mxCell id="XU4_op4EVZj-XPHD7sc--32" value="mainView" style="shape=umlLifeline;perimeter=lifelinePerimeter;whiteSpace=wrap;html=1;container=1;dropTarget=0;collapsible=0;recursiveResize=0;outlineConnect=0;portConstraint=eastwest;newEdgeStyle={&quot;curved&quot;:0,&quot;rounded&quot;:0};" parent="1" vertex="1">
          <mxGeometry x="1110" y="40" width="100" height="760" as="geometry" />
        </mxCell>
        <mxCell id="XU4_op4EVZj-XPHD7sc--33" value="" style="html=1;points=[[0,0,0,0,5],[0,1,0,0,-5],[1,0,0,0,5],[1,1,0,0,-5]];perimeter=orthogonalPerimeter;outlineConnect=0;targetShapes=umlLifeline;portConstraint=eastwest;newEdgeStyle={&quot;curved&quot;:0,&quot;rounded&quot;:0};" parent="XU4_op4EVZj-XPHD7sc--32" vertex="1">
          <mxGeometry x="45" y="90" width="10" height="630" as="geometry" />
        </mxCell>
        <mxCell id="XU4_op4EVZj-XPHD7sc--34" value="decoderNameDialog" style="shape=umlLifeline;perimeter=lifelinePerimeter;whiteSpace=wrap;html=1;container=1;dropTarget=0;collapsible=0;recursiveResize=0;outlineConnect=0;portConstraint=eastwest;newEdgeStyle={&quot;curved&quot;:0,&quot;rounded&quot;:0};" parent="1" vertex="1">
          <mxGeometry x="1230" y="40" width="120" height="760" as="geometry" />
        </mxCell>
        <mxCell id="XU4_op4EVZj-XPHD7sc--35" value="" style="html=1;points=[[0,0,0,0,5],[0,1,0,0,-5],[1,0,0,0,5],[1,1,0,0,-5]];perimeter=orthogonalPerimeter;outlineConnect=0;targetShapes=umlLifeline;portConstraint=eastwest;newEdgeStyle={&quot;curved&quot;:0,&quot;rounded&quot;:0};" parent="XU4_op4EVZj-XPHD7sc--34" vertex="1">
          <mxGeometry x="55" y="90" width="10" height="630" as="geometry" />
        </mxCell>
        <mxCell id="XU4_op4EVZj-XPHD7sc--36" value="decodingGame" style="shape=umlLifeline;perimeter=lifelinePerimeter;whiteSpace=wrap;html=1;container=1;dropTarget=0;collapsible=0;recursiveResize=0;outlineConnect=0;portConstraint=eastwest;newEdgeStyle={&quot;curved&quot;:0,&quot;rounded&quot;:0};" parent="1" vertex="1">
          <mxGeometry x="440" y="40" width="100" height="760" as="geometry" />
        </mxCell>
        <mxCell id="XU4_op4EVZj-XPHD7sc--37" value="" style="html=1;points=[[0,0,0,0,5],[0,1,0,0,-5],[1,0,0,0,5],[1,1,0,0,-5]];perimeter=orthogonalPerimeter;outlineConnect=0;targetShapes=umlLifeline;portConstraint=eastwest;newEdgeStyle={&quot;curved&quot;:0,&quot;rounded&quot;:0};" parent="XU4_op4EVZj-XPHD7sc--36" vertex="1">
          <mxGeometry x="45" y="90" width="10" height="630" as="geometry" />
        </mxCell>
        <mxCell id="XU4_op4EVZj-XPHD7sc--39" value="gameFacade" style="shape=umlLifeline;perimeter=lifelinePerimeter;whiteSpace=wrap;html=1;container=1;dropTarget=0;collapsible=0;recursiveResize=0;outlineConnect=0;portConstraint=eastwest;newEdgeStyle={&quot;curved&quot;:0,&quot;rounded&quot;:0};" parent="1" vertex="1">
          <mxGeometry x="200" y="40" width="100" height="760" as="geometry" />
        </mxCell>
        <mxCell id="XU4_op4EVZj-XPHD7sc--40" value="" style="html=1;points=[[0,0,0,0,5],[0,1,0,0,-5],[1,0,0,0,5],[1,1,0,0,-5]];perimeter=orthogonalPerimeter;outlineConnect=0;targetShapes=umlLifeline;portConstraint=eastwest;newEdgeStyle={&quot;curved&quot;:0,&quot;rounded&quot;:0};" parent="XU4_op4EVZj-XPHD7sc--39" vertex="1">
          <mxGeometry x="45" y="90" width="10" height="630" as="geometry" />
        </mxCell>
        <mxCell id="XU4_op4EVZj-XPHD7sc--41" value="viewFacade" style="shape=umlLifeline;perimeter=lifelinePerimeter;whiteSpace=wrap;html=1;container=1;dropTarget=0;collapsible=0;recursiveResize=0;outlineConnect=0;portConstraint=eastwest;newEdgeStyle={&quot;curved&quot;:0,&quot;rounded&quot;:0};" parent="1" vertex="1">
          <mxGeometry x="320" y="40" width="100" height="760" as="geometry" />
        </mxCell>
        <mxCell id="XU4_op4EVZj-XPHD7sc--43" value="" style="html=1;points=[[0,0,0,0,5],[0,1,0,0,-5],[1,0,0,0,5],[1,1,0,0,-5]];perimeter=orthogonalPerimeter;outlineConnect=0;targetShapes=umlLifeline;portConstraint=eastwest;newEdgeStyle={&quot;curved&quot;:0,&quot;rounded&quot;:0};" parent="XU4_op4EVZj-XPHD7sc--41" vertex="1">
          <mxGeometry x="45" y="90" width="10" height="630" as="geometry" />
        </mxCell>
        <mxCell id="XU4_op4EVZj-XPHD7sc--44" value="playerController" style="shape=umlLifeline;perimeter=lifelinePerimeter;whiteSpace=wrap;html=1;container=1;dropTarget=0;collapsible=0;recursiveResize=0;outlineConnect=0;portConstraint=eastwest;newEdgeStyle={&quot;curved&quot;:0,&quot;rounded&quot;:0};" parent="1" vertex="1">
          <mxGeometry x="560" y="40" width="100" height="760" as="geometry" />
        </mxCell>
        <mxCell id="XU4_op4EVZj-XPHD7sc--45" value="" style="html=1;points=[[0,0,0,0,5],[0,1,0,0,-5],[1,0,0,0,5],[1,1,0,0,-5]];perimeter=orthogonalPerimeter;outlineConnect=0;targetShapes=umlLifeline;portConstraint=eastwest;newEdgeStyle={&quot;curved&quot;:0,&quot;rounded&quot;:0};" parent="XU4_op4EVZj-XPHD7sc--44" vertex="1">
          <mxGeometry x="45" y="90" width="10" height="630" as="geometry" />
        </mxCell>
        <mxCell id="XU4_op4EVZj-XPHD7sc--46" value="gameController" style="shape=umlLifeline;perimeter=lifelinePerimeter;whiteSpace=wrap;html=1;container=1;dropTarget=0;collapsible=0;recursiveResize=0;outlineConnect=0;portConstraint=eastwest;newEdgeStyle={&quot;curved&quot;:0,&quot;rounded&quot;:0};" parent="1" vertex="1">
          <mxGeometry x="680" y="40" width="100" height="760" as="geometry" />
        </mxCell>
        <mxCell id="XU4_op4EVZj-XPHD7sc--47" value="" style="html=1;points=[[0,0,0,0,5],[0,1,0,0,-5],[1,0,0,0,5],[1,1,0,0,-5]];perimeter=orthogonalPerimeter;outlineConnect=0;targetShapes=umlLifeline;portConstraint=eastwest;newEdgeStyle={&quot;curved&quot;:0,&quot;rounded&quot;:0};" parent="XU4_op4EVZj-XPHD7sc--46" vertex="1">
          <mxGeometry x="45" y="90" width="10" height="630" as="geometry" />
        </mxCell>
        <mxCell id="XU4_op4EVZj-XPHD7sc--65" value="retrieveId()&lt;br&gt;and increment" style="html=1;verticalAlign=bottom;endArrow=block;curved=0;rounded=0;" parent="XU4_op4EVZj-XPHD7sc--46" edge="1">
          <mxGeometry x="0.375" y="-40" width="80" relative="1" as="geometry">
            <mxPoint x="55" y="310" as="sourcePoint" />
            <mxPoint x="55" y="340" as="targetPoint" />
            <Array as="points">
              <mxPoint x="80" y="310" />
              <mxPoint x="80" y="340" />
            </Array>
            <mxPoint x="40" y="40" as="offset" />
          </mxGeometry>
        </mxCell>
        <mxCell id="XU4_op4EVZj-XPHD7sc--48" value="nameInsertController" style="shape=umlLifeline;perimeter=lifelinePerimeter;whiteSpace=wrap;html=1;container=1;dropTarget=0;collapsible=0;recursiveResize=0;outlineConnect=0;portConstraint=eastwest;newEdgeStyle={&quot;curved&quot;:0,&quot;rounded&quot;:0};" parent="1" vertex="1">
          <mxGeometry x="800" y="40" width="120" height="760" as="geometry" />
        </mxCell>
        <mxCell id="XU4_op4EVZj-XPHD7sc--49" value="" style="html=1;points=[[0,0,0,0,5],[0,1,0,0,-5],[1,0,0,0,5],[1,1,0,0,-5]];perimeter=orthogonalPerimeter;outlineConnect=0;targetShapes=umlLifeline;portConstraint=eastwest;newEdgeStyle={&quot;curved&quot;:0,&quot;rounded&quot;:0};" parent="XU4_op4EVZj-XPHD7sc--48" vertex="1">
          <mxGeometry x="55" y="90" width="10" height="630" as="geometry" />
        </mxCell>
        <mxCell id="XU4_op4EVZj-XPHD7sc--51" value="difficultySelectionController" style="shape=umlLifeline;perimeter=lifelinePerimeter;whiteSpace=wrap;html=1;container=1;dropTarget=0;collapsible=0;recursiveResize=0;outlineConnect=0;portConstraint=eastwest;newEdgeStyle={&quot;curved&quot;:0,&quot;rounded&quot;:0};" parent="1" vertex="1">
          <mxGeometry x="940" y="40" width="150" height="760" as="geometry" />
        </mxCell>
        <mxCell id="XU4_op4EVZj-XPHD7sc--52" value="" style="html=1;points=[[0,0,0,0,5],[0,1,0,0,-5],[1,0,0,0,5],[1,1,0,0,-5]];perimeter=orthogonalPerimeter;outlineConnect=0;targetShapes=umlLifeline;portConstraint=eastwest;newEdgeStyle={&quot;curved&quot;:0,&quot;rounded&quot;:0};" parent="XU4_op4EVZj-XPHD7sc--51" vertex="1">
          <mxGeometry x="70" y="90" width="10" height="630" as="geometry" />
        </mxCell>
        <mxCell id="XU4_op4EVZj-XPHD7sc--53" value="encoder" style="shape=umlLifeline;perimeter=lifelinePerimeter;whiteSpace=wrap;html=1;container=1;dropTarget=0;collapsible=0;recursiveResize=0;outlineConnect=0;portConstraint=eastwest;newEdgeStyle={&quot;curved&quot;:0,&quot;rounded&quot;:0};" parent="1" vertex="1">
          <mxGeometry x="1370" y="40" width="100" height="760" as="geometry" />
        </mxCell>
        <mxCell id="XU4_op4EVZj-XPHD7sc--54" value="" style="html=1;points=[[0,0,0,0,5],[0,1,0,0,-5],[1,0,0,0,5],[1,1,0,0,-5]];perimeter=orthogonalPerimeter;outlineConnect=0;targetShapes=umlLifeline;portConstraint=eastwest;newEdgeStyle={&quot;curved&quot;:0,&quot;rounded&quot;:0};" parent="XU4_op4EVZj-XPHD7sc--53" vertex="1">
          <mxGeometry x="45" y="90" width="10" height="630" as="geometry" />
        </mxCell>
        <mxCell id="XU4_op4EVZj-XPHD7sc--55" value="decoder" style="shape=umlLifeline;perimeter=lifelinePerimeter;whiteSpace=wrap;html=1;container=1;dropTarget=0;collapsible=0;recursiveResize=0;outlineConnect=0;portConstraint=eastwest;newEdgeStyle={&quot;curved&quot;:0,&quot;rounded&quot;:0};" parent="1" vertex="1">
          <mxGeometry x="1490" y="40" width="100" height="760" as="geometry" />
        </mxCell>
        <mxCell id="XU4_op4EVZj-XPHD7sc--56" value="" style="html=1;points=[[0,0,0,0,5],[0,1,0,0,-5],[1,0,0,0,5],[1,1,0,0,-5]];perimeter=orthogonalPerimeter;outlineConnect=0;targetShapes=umlLifeline;portConstraint=eastwest;newEdgeStyle={&quot;curved&quot;:0,&quot;rounded&quot;:0};" parent="XU4_op4EVZj-XPHD7sc--55" vertex="1">
          <mxGeometry x="45" y="90" width="10" height="630" as="geometry" />
        </mxCell>
        <mxCell id="XU4_op4EVZj-XPHD7sc--57" value="game" style="shape=umlLifeline;perimeter=lifelinePerimeter;whiteSpace=wrap;html=1;container=1;dropTarget=0;collapsible=0;recursiveResize=0;outlineConnect=0;portConstraint=eastwest;newEdgeStyle={&quot;curved&quot;:0,&quot;rounded&quot;:0};" parent="1" vertex="1">
          <mxGeometry x="1610" y="40" width="100" height="760" as="geometry" />
        </mxCell>
        <mxCell id="XU4_op4EVZj-XPHD7sc--58" value="" style="html=1;points=[[0,0,0,0,5],[0,1,0,0,-5],[1,0,0,0,5],[1,1,0,0,-5]];perimeter=orthogonalPerimeter;outlineConnect=0;targetShapes=umlLifeline;portConstraint=eastwest;newEdgeStyle={&quot;curved&quot;:0,&quot;rounded&quot;:0};" parent="XU4_op4EVZj-XPHD7sc--57" vertex="1">
          <mxGeometry x="45" y="90" width="10" height="630" as="geometry" />
        </mxCell>
        <mxCell id="XU4_op4EVZj-XPHD7sc--60" value="ActionPerformed()" style="html=1;verticalAlign=bottom;endArrow=block;curved=0;rounded=0;" parent="1" edge="1">
          <mxGeometry width="80" relative="1" as="geometry">
            <mxPoint x="1155" y="169.9999999999999" as="sourcePoint" />
            <mxPoint x="1020.0000000000002" y="169.9999999999999" as="targetPoint" />
          </mxGeometry>
        </mxCell>
        <mxCell id="XU4_op4EVZj-XPHD7sc--61" value="handleDiffuculty&lt;br&gt;ChooseInput()" style="shape=umlFrame;whiteSpace=wrap;html=1;pointerEvents=0;width=100;height=30;" parent="1" vertex="1">
          <mxGeometry x="120" y="210" width="1640" height="510" as="geometry" />
        </mxCell>
        <mxCell id="rTa7LTqlLrorRSVed1K8-4" value="newGame()" style="html=1;verticalAlign=bottom;endArrow=block;curved=0;rounded=0;" edge="1" parent="1">
          <mxGeometry x="0.8804" width="80" relative="1" as="geometry">
            <mxPoint x="735" y="450" as="sourcePoint" />
            <mxPoint x="1655" y="450" as="targetPoint" />
            <mxPoint as="offset" />
          </mxGeometry>
        </mxCell>
        <mxCell id="rTa7LTqlLrorRSVed1K8-6" value="generateSecretCode()" style="html=1;verticalAlign=bottom;endArrow=block;curved=0;rounded=0;" edge="1" parent="1">
          <mxGeometry x="0.8375" width="80" relative="1" as="geometry">
            <mxPoint x="615" y="480" as="sourcePoint" />
            <mxPoint x="1415" y="480" as="targetPoint" />
            <mxPoint as="offset" />
          </mxGeometry>
        </mxCell>
        <mxCell id="rTa7LTqlLrorRSVed1K8-7" value="startGame()" style="html=1;verticalAlign=bottom;endArrow=block;curved=0;rounded=0;" edge="1" parent="1">
          <mxGeometry x="0.8804" width="80" relative="1" as="geometry">
            <mxPoint x="735" y="499" as="sourcePoint" />
            <mxPoint x="1655" y="499" as="targetPoint" />
            <mxPoint as="offset" />
          </mxGeometry>
        </mxCell>
        <mxCell id="rTa7LTqlLrorRSVed1K8-8" value="return" style="html=1;verticalAlign=bottom;endArrow=open;dashed=1;endSize=8;curved=0;rounded=0;" edge="1" parent="1">
          <mxGeometry x="0.859" relative="1" as="geometry">
            <mxPoint x="1155" y="548" as="sourcePoint" />
            <mxPoint x="375" y="548" as="targetPoint" />
            <mxPoint as="offset" />
          </mxGeometry>
        </mxCell>
        <mxCell id="rTa7LTqlLrorRSVed1K8-9" value="updateGame&lt;br&gt;DifficultyInfo()" style="html=1;verticalAlign=bottom;endArrow=block;curved=0;rounded=0;" edge="1" parent="1">
          <mxGeometry x="0.8804" width="80" relative="1" as="geometry">
            <mxPoint x="735" y="568" as="sourcePoint" />
            <mxPoint x="1655" y="568" as="targetPoint" />
            <mxPoint as="offset" />
          </mxGeometry>
        </mxCell>
      </root>
    </mxGraphModel>
  </diagram>
  <diagram id="ENifSUkkFFPSsa0WZSiJ" name="playTurn">
    <mxGraphModel dx="2049" dy="1194" grid="1" gridSize="10" guides="1" tooltips="1" connect="1" arrows="1" fold="1" page="1" pageScale="1" pageWidth="850" pageHeight="1100" math="0" shadow="0">
      <root>
        <mxCell id="0" />
        <mxCell id="1" parent="0" />
        <mxCell id="5WjKkK4CHzrK5aw3DW0U-7" value="if has attempts&lt;br&gt;left" style="verticalAlign=top;align=left;spacingTop=8;spacingLeft=2;spacingRight=12;shape=cube;size=10;direction=south;fontStyle=4;html=1;whiteSpace=wrap;" vertex="1" parent="1">
          <mxGeometry x="190" y="550" width="1590" height="360" as="geometry" />
        </mxCell>
        <mxCell id="5WjKkK4CHzrK5aw3DW0U-8" value="if there are no&lt;br&gt;duplicates in&lt;br&gt;sequence" style="verticalAlign=top;align=left;spacingTop=8;spacingLeft=2;spacingRight=12;shape=cube;size=10;direction=south;fontStyle=4;html=1;whiteSpace=wrap;" vertex="1" parent="1">
          <mxGeometry x="200" y="620" width="1550" height="270" as="geometry" />
        </mxCell>
        <mxCell id="5WjKkK4CHzrK5aw3DW0U-13" value="if decoder&lt;br&gt;wins or has&lt;br&gt;not attempts&lt;br&gt;left" style="verticalAlign=top;align=left;spacingTop=8;spacingLeft=2;spacingRight=12;shape=cube;size=10;direction=south;fontStyle=4;html=1;whiteSpace=wrap;" vertex="1" parent="1">
          <mxGeometry x="205" y="740" width="1515" height="130" as="geometry" />
        </mxCell>
        <mxCell id="5WjKkK4CHzrK5aw3DW0U-5" value="if game not set" style="verticalAlign=top;align=left;spacingTop=8;spacingLeft=2;spacingRight=12;shape=cube;size=10;direction=south;fontStyle=4;html=1;whiteSpace=wrap;" vertex="1" parent="1">
          <mxGeometry x="170" y="380" width="1540" height="70" as="geometry" />
        </mxCell>
        <mxCell id="5WjKkK4CHzrK5aw3DW0U-3" value="if no game" style="verticalAlign=top;align=left;spacingTop=8;spacingLeft=2;spacingRight=12;shape=cube;size=10;direction=south;fontStyle=4;html=1;whiteSpace=wrap;" vertex="1" parent="1">
          <mxGeometry x="170" y="290" width="1540" height="70" as="geometry" />
        </mxCell>
        <mxCell id="vv2Lg7EesVGJJaTFb2GC-5" value="ActionPerformed()" style="html=1;verticalAlign=bottom;endArrow=block;curved=0;rounded=0;" edge="1" parent="1">
          <mxGeometry width="80" relative="1" as="geometry">
            <mxPoint x="1315" y="271" as="sourcePoint" />
            <mxPoint x="1205" y="271" as="targetPoint" />
            <mxPoint as="offset" />
          </mxGeometry>
        </mxCell>
        <mxCell id="vv2Lg7EesVGJJaTFb2GC-7" value="handleTurn()" style="shape=umlFrame;whiteSpace=wrap;html=1;pointerEvents=0;width=80;height=30;" vertex="1" parent="1">
          <mxGeometry x="180" y="490" width="1630" height="470" as="geometry" />
        </mxCell>
        <mxCell id="vv2Lg7EesVGJJaTFb2GC-8" value="" style="html=1;verticalAlign=bottom;endArrow=block;curved=0;rounded=0;entryX=0.027;entryY=0;entryDx=0;entryDy=0;entryPerimeter=0;" edge="1" parent="1" target="vv2Lg7EesVGJJaTFb2GC-7" source="5WjKkK4CHzrK5aw3DW0U-2">
          <mxGeometry width="80" relative="1" as="geometry">
            <mxPoint x="855" y="1400" as="sourcePoint" />
            <mxPoint x="550" y="1400" as="targetPoint" />
            <Array as="points">
              <mxPoint x="250" y="470" />
            </Array>
          </mxGeometry>
        </mxCell>
        <mxCell id="vv2Lg7EesVGJJaTFb2GC-22" value="Loop for all attempts left" style="shape=umlFrame;whiteSpace=wrap;html=1;pointerEvents=0;width=100;height=60;" vertex="1" parent="1">
          <mxGeometry x="160" y="170" width="1680" height="830" as="geometry" />
        </mxCell>
        <mxCell id="dtl6HabOTtBuAM99os8o-1" value="mainView" style="shape=umlLifeline;perimeter=lifelinePerimeter;whiteSpace=wrap;html=1;container=1;dropTarget=0;collapsible=0;recursiveResize=0;outlineConnect=0;portConstraint=eastwest;newEdgeStyle={&quot;curved&quot;:0,&quot;rounded&quot;:0};" vertex="1" parent="1">
          <mxGeometry x="1270" y="80" width="100" height="1000" as="geometry" />
        </mxCell>
        <mxCell id="dtl6HabOTtBuAM99os8o-2" value="" style="html=1;points=[[0,0,0,0,5],[0,1,0,0,-5],[1,0,0,0,5],[1,1,0,0,-5]];perimeter=orthogonalPerimeter;outlineConnect=0;targetShapes=umlLifeline;portConstraint=eastwest;newEdgeStyle={&quot;curved&quot;:0,&quot;rounded&quot;:0};" vertex="1" parent="dtl6HabOTtBuAM99os8o-1">
          <mxGeometry x="45" y="90" width="10" height="870" as="geometry" />
        </mxCell>
        <mxCell id="dtl6HabOTtBuAM99os8o-5" value="decodingGame" style="shape=umlLifeline;perimeter=lifelinePerimeter;whiteSpace=wrap;html=1;container=1;dropTarget=0;collapsible=0;recursiveResize=0;outlineConnect=0;portConstraint=eastwest;newEdgeStyle={&quot;curved&quot;:0,&quot;rounded&quot;:0};" vertex="1" parent="1">
          <mxGeometry x="480" y="80" width="100" height="1000" as="geometry" />
        </mxCell>
        <mxCell id="dtl6HabOTtBuAM99os8o-6" value="" style="html=1;points=[[0,0,0,0,5],[0,1,0,0,-5],[1,0,0,0,5],[1,1,0,0,-5]];perimeter=orthogonalPerimeter;outlineConnect=0;targetShapes=umlLifeline;portConstraint=eastwest;newEdgeStyle={&quot;curved&quot;:0,&quot;rounded&quot;:0};" vertex="1" parent="dtl6HabOTtBuAM99os8o-5">
          <mxGeometry x="45" y="90" width="10" height="870" as="geometry" />
        </mxCell>
        <mxCell id="dtl6HabOTtBuAM99os8o-7" value="gameFacade" style="shape=umlLifeline;perimeter=lifelinePerimeter;whiteSpace=wrap;html=1;container=1;dropTarget=0;collapsible=0;recursiveResize=0;outlineConnect=0;portConstraint=eastwest;newEdgeStyle={&quot;curved&quot;:0,&quot;rounded&quot;:0};" vertex="1" parent="1">
          <mxGeometry x="240" y="80" width="100" height="1000" as="geometry" />
        </mxCell>
        <mxCell id="dtl6HabOTtBuAM99os8o-8" value="" style="html=1;points=[[0,0,0,0,5],[0,1,0,0,-5],[1,0,0,0,5],[1,1,0,0,-5]];perimeter=orthogonalPerimeter;outlineConnect=0;targetShapes=umlLifeline;portConstraint=eastwest;newEdgeStyle={&quot;curved&quot;:0,&quot;rounded&quot;:0};" vertex="1" parent="dtl6HabOTtBuAM99os8o-7">
          <mxGeometry x="45" y="90" width="10" height="870" as="geometry" />
        </mxCell>
        <mxCell id="dtl6HabOTtBuAM99os8o-9" value="viewFacade" style="shape=umlLifeline;perimeter=lifelinePerimeter;whiteSpace=wrap;html=1;container=1;dropTarget=0;collapsible=0;recursiveResize=0;outlineConnect=0;portConstraint=eastwest;newEdgeStyle={&quot;curved&quot;:0,&quot;rounded&quot;:0};" vertex="1" parent="1">
          <mxGeometry x="360" y="80" width="100" height="1000" as="geometry" />
        </mxCell>
        <mxCell id="dtl6HabOTtBuAM99os8o-10" value="" style="html=1;points=[[0,0,0,0,5],[0,1,0,0,-5],[1,0,0,0,5],[1,1,0,0,-5]];perimeter=orthogonalPerimeter;outlineConnect=0;targetShapes=umlLifeline;portConstraint=eastwest;newEdgeStyle={&quot;curved&quot;:0,&quot;rounded&quot;:0};" vertex="1" parent="dtl6HabOTtBuAM99os8o-9">
          <mxGeometry x="45" y="90" width="10" height="870" as="geometry" />
        </mxCell>
        <mxCell id="dtl6HabOTtBuAM99os8o-11" value="playerController" style="shape=umlLifeline;perimeter=lifelinePerimeter;whiteSpace=wrap;html=1;container=1;dropTarget=0;collapsible=0;recursiveResize=0;outlineConnect=0;portConstraint=eastwest;newEdgeStyle={&quot;curved&quot;:0,&quot;rounded&quot;:0};" vertex="1" parent="1">
          <mxGeometry x="600" y="80" width="100" height="1000" as="geometry" />
        </mxCell>
        <mxCell id="dtl6HabOTtBuAM99os8o-12" value="" style="html=1;points=[[0,0,0,0,5],[0,1,0,0,-5],[1,0,0,0,5],[1,1,0,0,-5]];perimeter=orthogonalPerimeter;outlineConnect=0;targetShapes=umlLifeline;portConstraint=eastwest;newEdgeStyle={&quot;curved&quot;:0,&quot;rounded&quot;:0};" vertex="1" parent="dtl6HabOTtBuAM99os8o-11">
          <mxGeometry x="45" y="90" width="10" height="870" as="geometry" />
        </mxCell>
        <mxCell id="dtl6HabOTtBuAM99os8o-13" value="gameController" style="shape=umlLifeline;perimeter=lifelinePerimeter;whiteSpace=wrap;html=1;container=1;dropTarget=0;collapsible=0;recursiveResize=0;outlineConnect=0;portConstraint=eastwest;newEdgeStyle={&quot;curved&quot;:0,&quot;rounded&quot;:0};" vertex="1" parent="1">
          <mxGeometry x="720" y="80" width="100" height="1000" as="geometry" />
        </mxCell>
        <mxCell id="dtl6HabOTtBuAM99os8o-14" value="" style="html=1;points=[[0,0,0,0,5],[0,1,0,0,-5],[1,0,0,0,5],[1,1,0,0,-5]];perimeter=orthogonalPerimeter;outlineConnect=0;targetShapes=umlLifeline;portConstraint=eastwest;newEdgeStyle={&quot;curved&quot;:0,&quot;rounded&quot;:0};" vertex="1" parent="dtl6HabOTtBuAM99os8o-13">
          <mxGeometry x="45" y="90" width="10" height="870" as="geometry" />
        </mxCell>
        <mxCell id="dtl6HabOTtBuAM99os8o-16" value="nameInsertController" style="shape=umlLifeline;perimeter=lifelinePerimeter;whiteSpace=wrap;html=1;container=1;dropTarget=0;collapsible=0;recursiveResize=0;outlineConnect=0;portConstraint=eastwest;newEdgeStyle={&quot;curved&quot;:0,&quot;rounded&quot;:0};" vertex="1" parent="1">
          <mxGeometry x="840" y="80" width="120" height="1000" as="geometry" />
        </mxCell>
        <mxCell id="dtl6HabOTtBuAM99os8o-17" value="" style="html=1;points=[[0,0,0,0,5],[0,1,0,0,-5],[1,0,0,0,5],[1,1,0,0,-5]];perimeter=orthogonalPerimeter;outlineConnect=0;targetShapes=umlLifeline;portConstraint=eastwest;newEdgeStyle={&quot;curved&quot;:0,&quot;rounded&quot;:0};" vertex="1" parent="dtl6HabOTtBuAM99os8o-16">
          <mxGeometry x="55" y="90" width="10" height="870" as="geometry" />
        </mxCell>
        <mxCell id="dtl6HabOTtBuAM99os8o-18" value="difficultySelectionController" style="shape=umlLifeline;perimeter=lifelinePerimeter;whiteSpace=wrap;html=1;container=1;dropTarget=0;collapsible=0;recursiveResize=0;outlineConnect=0;portConstraint=eastwest;newEdgeStyle={&quot;curved&quot;:0,&quot;rounded&quot;:0};" vertex="1" parent="1">
          <mxGeometry x="980" y="80" width="150" height="1000" as="geometry" />
        </mxCell>
        <mxCell id="dtl6HabOTtBuAM99os8o-19" value="" style="html=1;points=[[0,0,0,0,5],[0,1,0,0,-5],[1,0,0,0,5],[1,1,0,0,-5]];perimeter=orthogonalPerimeter;outlineConnect=0;targetShapes=umlLifeline;portConstraint=eastwest;newEdgeStyle={&quot;curved&quot;:0,&quot;rounded&quot;:0};" vertex="1" parent="dtl6HabOTtBuAM99os8o-18">
          <mxGeometry x="70" y="90" width="10" height="870" as="geometry" />
        </mxCell>
        <mxCell id="dtl6HabOTtBuAM99os8o-20" value="encoder" style="shape=umlLifeline;perimeter=lifelinePerimeter;whiteSpace=wrap;html=1;container=1;dropTarget=0;collapsible=0;recursiveResize=0;outlineConnect=0;portConstraint=eastwest;newEdgeStyle={&quot;curved&quot;:0,&quot;rounded&quot;:0};" vertex="1" parent="1">
          <mxGeometry x="1390" y="80" width="100" height="1000" as="geometry" />
        </mxCell>
        <mxCell id="dtl6HabOTtBuAM99os8o-21" value="" style="html=1;points=[[0,0,0,0,5],[0,1,0,0,-5],[1,0,0,0,5],[1,1,0,0,-5]];perimeter=orthogonalPerimeter;outlineConnect=0;targetShapes=umlLifeline;portConstraint=eastwest;newEdgeStyle={&quot;curved&quot;:0,&quot;rounded&quot;:0};" vertex="1" parent="dtl6HabOTtBuAM99os8o-20">
          <mxGeometry x="45" y="90" width="10" height="870" as="geometry" />
        </mxCell>
        <mxCell id="dtl6HabOTtBuAM99os8o-22" value="decoder" style="shape=umlLifeline;perimeter=lifelinePerimeter;whiteSpace=wrap;html=1;container=1;dropTarget=0;collapsible=0;recursiveResize=0;outlineConnect=0;portConstraint=eastwest;newEdgeStyle={&quot;curved&quot;:0,&quot;rounded&quot;:0};" vertex="1" parent="1">
          <mxGeometry x="1510" y="80" width="100" height="1000" as="geometry" />
        </mxCell>
        <mxCell id="dtl6HabOTtBuAM99os8o-23" value="" style="html=1;points=[[0,0,0,0,5],[0,1,0,0,-5],[1,0,0,0,5],[1,1,0,0,-5]];perimeter=orthogonalPerimeter;outlineConnect=0;targetShapes=umlLifeline;portConstraint=eastwest;newEdgeStyle={&quot;curved&quot;:0,&quot;rounded&quot;:0};" vertex="1" parent="dtl6HabOTtBuAM99os8o-22">
          <mxGeometry x="45" y="90" width="10" height="870" as="geometry" />
        </mxCell>
        <mxCell id="dtl6HabOTtBuAM99os8o-24" value="game" style="shape=umlLifeline;perimeter=lifelinePerimeter;whiteSpace=wrap;html=1;container=1;dropTarget=0;collapsible=0;recursiveResize=0;outlineConnect=0;portConstraint=eastwest;newEdgeStyle={&quot;curved&quot;:0,&quot;rounded&quot;:0};" vertex="1" parent="1">
          <mxGeometry x="1630" y="80" width="100" height="1000" as="geometry" />
        </mxCell>
        <mxCell id="dtl6HabOTtBuAM99os8o-25" value="" style="html=1;points=[[0,0,0,0,5],[0,1,0,0,-5],[1,0,0,0,5],[1,1,0,0,-5]];perimeter=orthogonalPerimeter;outlineConnect=0;targetShapes=umlLifeline;portConstraint=eastwest;newEdgeStyle={&quot;curved&quot;:0,&quot;rounded&quot;:0};" vertex="1" parent="dtl6HabOTtBuAM99os8o-24">
          <mxGeometry x="45" y="90" width="10" height="870" as="geometry" />
        </mxCell>
        <mxCell id="nfkXcmggewUbvpTcMqNw-1" value="Decoder" style="shape=umlActor;verticalLabelPosition=bottom;verticalAlign=top;html=1;" vertex="1" parent="1">
          <mxGeometry x="100" y="210" width="30" height="60" as="geometry" />
        </mxCell>
        <mxCell id="gFqm_S6jpwIA5197oCzZ-1" value="select sequence&lt;br&gt;and confirm" style="html=1;verticalAlign=bottom;endArrow=block;curved=0;rounded=0;exitX=0.5;exitY=0.5;exitDx=0;exitDy=0;exitPerimeter=0;" edge="1" parent="1" source="nfkXcmggewUbvpTcMqNw-1" target="dtl6HabOTtBuAM99os8o-2">
          <mxGeometry x="0.9083" width="80" relative="1" as="geometry">
            <mxPoint x="460" y="200" as="sourcePoint" />
            <mxPoint x="540" y="200" as="targetPoint" />
            <mxPoint as="offset" />
          </mxGeometry>
        </mxCell>
        <mxCell id="5WjKkK4CHzrK5aw3DW0U-1" value="turnController" style="shape=umlLifeline;perimeter=lifelinePerimeter;whiteSpace=wrap;html=1;container=1;dropTarget=0;collapsible=0;recursiveResize=0;outlineConnect=0;portConstraint=eastwest;newEdgeStyle={&quot;curved&quot;:0,&quot;rounded&quot;:0};" vertex="1" parent="1">
          <mxGeometry x="1150" y="80" width="100" height="1000" as="geometry" />
        </mxCell>
        <mxCell id="5WjKkK4CHzrK5aw3DW0U-2" value="" style="html=1;points=[[0,0,0,0,5],[0,1,0,0,-5],[1,0,0,0,5],[1,1,0,0,-5]];perimeter=orthogonalPerimeter;outlineConnect=0;targetShapes=umlLifeline;portConstraint=eastwest;newEdgeStyle={&quot;curved&quot;:0,&quot;rounded&quot;:0};" vertex="1" parent="5WjKkK4CHzrK5aw3DW0U-1">
          <mxGeometry x="45" y="90" width="10" height="870" as="geometry" />
        </mxCell>
        <mxCell id="vv2Lg7EesVGJJaTFb2GC-6" value="endGame()" style="html=1;verticalAlign=bottom;endArrow=block;curved=0;rounded=0;" edge="1" parent="5WjKkK4CHzrK5aw3DW0U-1" source="5WjKkK4CHzrK5aw3DW0U-2" target="5WjKkK4CHzrK5aw3DW0U-2">
          <mxGeometry x="0.1333" y="40" width="80" relative="1" as="geometry">
            <mxPoint x="-285" y="1580" as="sourcePoint" />
            <mxPoint x="-285" y="1610" as="targetPoint" />
            <Array as="points">
              <mxPoint x="90" y="690" />
              <mxPoint x="90" y="770" />
            </Array>
            <mxPoint as="offset" />
          </mxGeometry>
        </mxCell>
        <mxCell id="5WjKkK4CHzrK5aw3DW0U-4" value="showDifficultyError&lt;br&gt;NotChosen()" style="html=1;verticalAlign=bottom;endArrow=block;curved=0;rounded=0;" edge="1" parent="1">
          <mxGeometry x="0.8778" y="2" width="80" relative="1" as="geometry">
            <mxPoint x="415" y="336" as="sourcePoint" />
            <mxPoint x="1315" y="336" as="targetPoint" />
            <mxPoint as="offset" />
          </mxGeometry>
        </mxCell>
        <mxCell id="5WjKkK4CHzrK5aw3DW0U-6" value="showDifficultyError&lt;br&gt;NotChosen()" style="html=1;verticalAlign=bottom;endArrow=block;curved=0;rounded=0;" edge="1" parent="1">
          <mxGeometry x="0.8778" y="2" width="80" relative="1" as="geometry">
            <mxPoint x="415" y="429" as="sourcePoint" />
            <mxPoint x="1315" y="429" as="targetPoint" />
            <mxPoint as="offset" />
          </mxGeometry>
        </mxCell>
        <mxCell id="5WjKkK4CHzrK5aw3DW0U-9" value="retrieveSequence()" style="html=1;verticalAlign=bottom;endArrow=block;curved=0;rounded=0;" edge="1" parent="1">
          <mxGeometry x="0.8778" width="80" relative="1" as="geometry">
            <mxPoint x="415" y="655" as="sourcePoint" />
            <mxPoint x="1315" y="655" as="targetPoint" />
            <mxPoint as="offset" />
          </mxGeometry>
        </mxCell>
        <mxCell id="5WjKkK4CHzrK5aw3DW0U-10" value="startGameTurn()" style="html=1;verticalAlign=bottom;endArrow=block;curved=0;rounded=0;" edge="1" parent="1" target="dtl6HabOTtBuAM99os8o-25">
          <mxGeometry x="0.8942" width="80" relative="1" as="geometry">
            <mxPoint x="775" y="665" as="sourcePoint" />
            <mxPoint x="1815" y="665" as="targetPoint" />
            <mxPoint as="offset" />
          </mxGeometry>
        </mxCell>
        <mxCell id="5WjKkK4CHzrK5aw3DW0U-11" value="showNew&lt;br&gt;Sequence()" style="html=1;verticalAlign=bottom;endArrow=block;curved=0;rounded=0;" edge="1" parent="1">
          <mxGeometry x="0.8778" width="80" relative="1" as="geometry">
            <mxPoint x="415" y="700.0000000000002" as="sourcePoint" />
            <mxPoint x="1315" y="700.0000000000002" as="targetPoint" />
            <mxPoint as="offset" />
          </mxGeometry>
        </mxCell>
        <mxCell id="5WjKkK4CHzrK5aw3DW0U-12" value="endTurn()" style="html=1;verticalAlign=bottom;endArrow=block;curved=0;rounded=0;" edge="1" parent="1">
          <mxGeometry x="0.8942" width="80" relative="1" as="geometry">
            <mxPoint x="775" y="714" as="sourcePoint" />
            <mxPoint x="1675" y="714" as="targetPoint" />
            <mxPoint as="offset" />
          </mxGeometry>
        </mxCell>
      </root>
    </mxGraphModel>
  </diagram>
  <diagram id="-SNkO-981gOdDUVk9eKb" name="updateGameInfo">
    <mxGraphModel dx="989" dy="577" grid="1" gridSize="10" guides="1" tooltips="1" connect="1" arrows="1" fold="1" page="1" pageScale="1" pageWidth="850" pageHeight="1100" math="0" shadow="0">
      <root>
        <mxCell id="0" />
        <mxCell id="1" parent="0" />
        <mxCell id="PX8cOQY9Uur4u0JPprsn-1" value="gameController" style="shape=umlLifeline;perimeter=lifelinePerimeter;whiteSpace=wrap;html=1;container=1;dropTarget=0;collapsible=0;recursiveResize=0;outlineConnect=0;portConstraint=eastwest;newEdgeStyle={&quot;curved&quot;:0,&quot;rounded&quot;:0};" vertex="1" parent="1">
          <mxGeometry x="280" y="40" width="100" height="400" as="geometry" />
        </mxCell>
        <mxCell id="PX8cOQY9Uur4u0JPprsn-2" value="" style="html=1;points=[[0,0,0,0,5],[0,1,0,0,-5],[1,0,0,0,5],[1,1,0,0,-5]];perimeter=orthogonalPerimeter;outlineConnect=0;targetShapes=umlLifeline;portConstraint=eastwest;newEdgeStyle={&quot;curved&quot;:0,&quot;rounded&quot;:0};" vertex="1" parent="PX8cOQY9Uur4u0JPprsn-1">
          <mxGeometry x="45" y="60" width="10" height="320" as="geometry" />
        </mxCell>
        <mxCell id="PX8cOQY9Uur4u0JPprsn-4" value="difficultySelectionController" style="shape=umlLifeline;perimeter=lifelinePerimeter;whiteSpace=wrap;html=1;container=1;dropTarget=0;collapsible=0;recursiveResize=0;outlineConnect=0;portConstraint=eastwest;newEdgeStyle={&quot;curved&quot;:0,&quot;rounded&quot;:0};" vertex="1" parent="1">
          <mxGeometry x="400" y="40" width="150" height="400" as="geometry" />
        </mxCell>
        <mxCell id="PX8cOQY9Uur4u0JPprsn-5" value="" style="html=1;points=[[0,0,0,0,5],[0,1,0,0,-5],[1,0,0,0,5],[1,1,0,0,-5]];perimeter=orthogonalPerimeter;outlineConnect=0;targetShapes=umlLifeline;portConstraint=eastwest;newEdgeStyle={&quot;curved&quot;:0,&quot;rounded&quot;:0};" vertex="1" parent="PX8cOQY9Uur4u0JPprsn-4">
          <mxGeometry x="70" y="60" width="10" height="320" as="geometry" />
        </mxCell>
        <mxCell id="PX8cOQY9Uur4u0JPprsn-6" value="game" style="shape=umlLifeline;perimeter=lifelinePerimeter;whiteSpace=wrap;html=1;container=1;dropTarget=0;collapsible=0;recursiveResize=0;outlineConnect=0;portConstraint=eastwest;newEdgeStyle={&quot;curved&quot;:0,&quot;rounded&quot;:0};" vertex="1" parent="1">
          <mxGeometry x="570" y="40" width="100" height="400" as="geometry" />
        </mxCell>
        <mxCell id="PX8cOQY9Uur4u0JPprsn-7" value="" style="html=1;points=[[0,0,0,0,5],[0,1,0,0,-5],[1,0,0,0,5],[1,1,0,0,-5]];perimeter=orthogonalPerimeter;outlineConnect=0;targetShapes=umlLifeline;portConstraint=eastwest;newEdgeStyle={&quot;curved&quot;:0,&quot;rounded&quot;:0};" vertex="1" parent="PX8cOQY9Uur4u0JPprsn-6">
          <mxGeometry x="45" y="60" width="10" height="320" as="geometry" />
        </mxCell>
        <mxCell id="_ELK69IJjXdZk0bKn6Rj-6" value="defineTotal&lt;br&gt;Attempts()" style="html=1;verticalAlign=bottom;endArrow=block;curved=0;rounded=0;" edge="1" parent="PX8cOQY9Uur4u0JPprsn-6" source="PX8cOQY9Uur4u0JPprsn-7" target="PX8cOQY9Uur4u0JPprsn-7">
          <mxGeometry x="0.3" y="-30" width="80" relative="1" as="geometry">
            <mxPoint x="-130" y="180" as="sourcePoint" />
            <mxPoint x="-50" y="180" as="targetPoint" />
            <Array as="points">
              <mxPoint x="90" y="150" />
              <mxPoint x="90" y="180" />
            </Array>
            <mxPoint x="30" y="30" as="offset" />
          </mxGeometry>
        </mxCell>
        <mxCell id="_ELK69IJjXdZk0bKn6Rj-7" value="return&lt;br&gt;number of total&lt;br&gt;attempts &lt;br&gt;for the game" style="html=1;verticalAlign=bottom;endArrow=open;dashed=1;endSize=8;curved=0;rounded=0;" edge="1" parent="PX8cOQY9Uur4u0JPprsn-6">
          <mxGeometry x="0.375" y="-51" relative="1" as="geometry">
            <mxPoint x="45" y="200" as="sourcePoint" />
            <mxPoint x="45" y="230" as="targetPoint" />
            <Array as="points">
              <mxPoint x="20" y="200" />
              <mxPoint x="20" y="230" />
            </Array>
            <mxPoint x="-50" y="-41" as="offset" />
          </mxGeometry>
        </mxCell>
        <mxCell id="_ELK69IJjXdZk0bKn6Rj-1" value="gameFacade" style="shape=umlLifeline;perimeter=lifelinePerimeter;whiteSpace=wrap;html=1;container=1;dropTarget=0;collapsible=0;recursiveResize=0;outlineConnect=0;portConstraint=eastwest;newEdgeStyle={&quot;curved&quot;:0,&quot;rounded&quot;:0};" vertex="1" parent="1">
          <mxGeometry x="160" y="40" width="100" height="400" as="geometry" />
        </mxCell>
        <mxCell id="_ELK69IJjXdZk0bKn6Rj-2" value="" style="html=1;points=[[0,0,0,0,5],[0,1,0,0,-5],[1,0,0,0,5],[1,1,0,0,-5]];perimeter=orthogonalPerimeter;outlineConnect=0;targetShapes=umlLifeline;portConstraint=eastwest;newEdgeStyle={&quot;curved&quot;:0,&quot;rounded&quot;:0};" vertex="1" parent="_ELK69IJjXdZk0bKn6Rj-1">
          <mxGeometry x="45" y="60" width="10" height="320" as="geometry" />
        </mxCell>
        <mxCell id="_ELK69IJjXdZk0bKn6Rj-8" value="initialize&lt;br&gt;Attempts&lt;br&gt;Left()" style="html=1;verticalAlign=bottom;endArrow=block;curved=0;rounded=0;" edge="1" parent="_ELK69IJjXdZk0bKn6Rj-1" source="_ELK69IJjXdZk0bKn6Rj-2" target="_ELK69IJjXdZk0bKn6Rj-2">
          <mxGeometry x="1" y="45" width="80" relative="1" as="geometry">
            <mxPoint x="210" y="320" as="sourcePoint" />
            <mxPoint x="290" y="320" as="targetPoint" />
            <Array as="points">
              <mxPoint x="80" y="240" />
              <mxPoint x="80" y="300" />
            </Array>
            <mxPoint x="-45" y="-45" as="offset" />
          </mxGeometry>
        </mxCell>
        <mxCell id="_ELK69IJjXdZk0bKn6Rj-3" value="updateGame&lt;br&gt;DifficultyInfo()" style="shape=umlFrame;whiteSpace=wrap;html=1;pointerEvents=0;width=110;height=40;" vertex="1" parent="1">
          <mxGeometry x="40" y="130" width="760" height="270" as="geometry" />
        </mxCell>
        <mxCell id="_ELK69IJjXdZk0bKn6Rj-4" value="" style="endArrow=open;endFill=1;endSize=12;html=1;rounded=0;entryX=0.084;entryY=-0.004;entryDx=0;entryDy=0;entryPerimeter=0;" edge="1" parent="1" source="PX8cOQY9Uur4u0JPprsn-5" target="_ELK69IJjXdZk0bKn6Rj-3">
          <mxGeometry width="160" relative="1" as="geometry">
            <mxPoint x="300" y="230" as="sourcePoint" />
            <mxPoint x="100" y="110" as="targetPoint" />
            <Array as="points">
              <mxPoint x="130" y="110" />
            </Array>
          </mxGeometry>
        </mxCell>
        <mxCell id="_ELK69IJjXdZk0bKn6Rj-5" value="call&lt;br&gt;(String difficulty name)" style="html=1;verticalAlign=bottom;endArrow=block;curved=0;rounded=0;" edge="1" parent="1">
          <mxGeometry x="0.675" width="80" relative="1" as="geometry">
            <mxPoint x="215" y="169.0000000000001" as="sourcePoint" />
            <mxPoint x="614.9999999999998" y="169.0000000000001" as="targetPoint" />
            <mxPoint as="offset" />
          </mxGeometry>
        </mxCell>
        <mxCell id="_ELK69IJjXdZk0bKn6Rj-9" value="getTotalAttempts()" style="html=1;verticalAlign=bottom;endArrow=block;curved=0;rounded=0;" edge="1" parent="1">
          <mxGeometry x="-0.025" y="1" width="80" relative="1" as="geometry">
            <mxPoint x="215" y="301" as="sourcePoint" />
            <mxPoint x="615" y="301" as="targetPoint" />
            <mxPoint as="offset" />
          </mxGeometry>
        </mxCell>
        <mxCell id="_ELK69IJjXdZk0bKn6Rj-10" value="return" style="html=1;verticalAlign=bottom;endArrow=open;dashed=1;endSize=8;curved=0;rounded=0;" edge="1" parent="1">
          <mxGeometry relative="1" as="geometry">
            <mxPoint x="615" y="320" as="sourcePoint" />
            <mxPoint x="215" y="320" as="targetPoint" />
          </mxGeometry>
        </mxCell>
        <mxCell id="_ELK69IJjXdZk0bKn6Rj-11" value="initializeHints()" style="html=1;verticalAlign=bottom;endArrow=block;curved=0;rounded=0;" edge="1" parent="1">
          <mxGeometry x="0.675" width="80" relative="1" as="geometry">
            <mxPoint x="215" y="360" as="sourcePoint" />
            <mxPoint x="615" y="360" as="targetPoint" />
            <mxPoint as="offset" />
          </mxGeometry>
        </mxCell>
        <mxCell id="_ELK69IJjXdZk0bKn6Rj-12" value="execute" style="html=1;verticalAlign=bottom;endArrow=block;curved=0;rounded=0;entryX=0.157;entryY=0.032;entryDx=0;entryDy=0;entryPerimeter=0;" edge="1" parent="1" source="PX8cOQY9Uur4u0JPprsn-2" target="_ELK69IJjXdZk0bKn6Rj-3">
          <mxGeometry x="-0.2576" width="80" relative="1" as="geometry">
            <mxPoint x="310" y="210" as="sourcePoint" />
            <mxPoint x="390" y="210" as="targetPoint" />
            <mxPoint as="offset" />
          </mxGeometry>
        </mxCell>
        <mxCell id="_ELK69IJjXdZk0bKn6Rj-17" value="hintsStorage" style="shape=umlLifeline;perimeter=lifelinePerimeter;whiteSpace=wrap;html=1;container=1;dropTarget=0;collapsible=0;recursiveResize=0;outlineConnect=0;portConstraint=eastwest;newEdgeStyle={&quot;curved&quot;:0,&quot;rounded&quot;:0};" vertex="1" parent="1">
          <mxGeometry x="690" y="40" width="100" height="400" as="geometry" />
        </mxCell>
        <mxCell id="_ELK69IJjXdZk0bKn6Rj-18" value="" style="html=1;points=[[0,0,0,0,5],[0,1,0,0,-5],[1,0,0,0,5],[1,1,0,0,-5]];perimeter=orthogonalPerimeter;outlineConnect=0;targetShapes=umlLifeline;portConstraint=eastwest;newEdgeStyle={&quot;curved&quot;:0,&quot;rounded&quot;:0};" vertex="1" parent="_ELK69IJjXdZk0bKn6Rj-17">
          <mxGeometry x="45" y="60" width="10" height="320" as="geometry" />
        </mxCell>
        <mxCell id="_ELK69IJjXdZk0bKn6Rj-19" value="initializeHints&lt;br&gt;(totalAttempts)" style="html=1;verticalAlign=bottom;endArrow=block;curved=0;rounded=0;" edge="1" parent="1" target="_ELK69IJjXdZk0bKn6Rj-18">
          <mxGeometry width="80" relative="1" as="geometry">
            <mxPoint x="625" y="380" as="sourcePoint" />
            <mxPoint x="739.5" y="380" as="targetPoint" />
          </mxGeometry>
        </mxCell>
      </root>
    </mxGraphModel>
  </diagram>
  <diagram id="QQZEJxm4LZ6L2wRSDYSU" name="playTurn">
    <mxGraphModel dx="1434" dy="836" grid="1" gridSize="10" guides="1" tooltips="1" connect="1" arrows="1" fold="1" page="1" pageScale="1" pageWidth="850" pageHeight="1100" math="0" shadow="0">
      <root>
        <mxCell id="0" />
        <mxCell id="1" parent="0" />
        <mxCell id="-YfmG1kcdW99SMGR7qMT-1" value="gameFacade" style="shape=umlLifeline;perimeter=lifelinePerimeter;whiteSpace=wrap;html=1;container=1;dropTarget=0;collapsible=0;recursiveResize=0;outlineConnect=0;portConstraint=eastwest;newEdgeStyle={&quot;curved&quot;:0,&quot;rounded&quot;:0};" vertex="1" parent="1">
          <mxGeometry x="120" y="40" width="100" height="640" as="geometry" />
        </mxCell>
        <mxCell id="-YfmG1kcdW99SMGR7qMT-2" value="" style="html=1;points=[[0,0,0,0,5],[0,1,0,0,-5],[1,0,0,0,5],[1,1,0,0,-5]];perimeter=orthogonalPerimeter;outlineConnect=0;targetShapes=umlLifeline;portConstraint=eastwest;newEdgeStyle={&quot;curved&quot;:0,&quot;rounded&quot;:0};" vertex="1" parent="-YfmG1kcdW99SMGR7qMT-1">
          <mxGeometry x="45" y="80" width="10" height="530" as="geometry" />
        </mxCell>
        <mxCell id="4OOnJW8AV3FkzG7YhF1J-6" value="attemptsLeft&lt;br&gt;decrement" style="html=1;verticalAlign=bottom;endArrow=block;curved=0;rounded=0;" edge="1" parent="-YfmG1kcdW99SMGR7qMT-1" source="-YfmG1kcdW99SMGR7qMT-2" target="-YfmG1kcdW99SMGR7qMT-2">
          <mxGeometry x="0.3" y="-40" width="80" relative="1" as="geometry">
            <mxPoint x="200" y="550" as="sourcePoint" />
            <mxPoint x="280" y="550" as="targetPoint" />
            <Array as="points">
              <mxPoint x="90" y="520" />
              <mxPoint x="90" y="550" />
            </Array>
            <mxPoint x="40" y="40" as="offset" />
          </mxGeometry>
        </mxCell>
        <mxCell id="-YfmG1kcdW99SMGR7qMT-3" value="gameController" style="shape=umlLifeline;perimeter=lifelinePerimeter;whiteSpace=wrap;html=1;container=1;dropTarget=0;collapsible=0;recursiveResize=0;outlineConnect=0;portConstraint=eastwest;newEdgeStyle={&quot;curved&quot;:0,&quot;rounded&quot;:0};" vertex="1" parent="1">
          <mxGeometry x="240" y="40" width="100" height="640" as="geometry" />
        </mxCell>
        <mxCell id="-YfmG1kcdW99SMGR7qMT-4" value="" style="html=1;points=[[0,0,0,0,5],[0,1,0,0,-5],[1,0,0,0,5],[1,1,0,0,-5]];perimeter=orthogonalPerimeter;outlineConnect=0;targetShapes=umlLifeline;portConstraint=eastwest;newEdgeStyle={&quot;curved&quot;:0,&quot;rounded&quot;:0};" vertex="1" parent="-YfmG1kcdW99SMGR7qMT-3">
          <mxGeometry x="45" y="80" width="10" height="530" as="geometry" />
        </mxCell>
        <mxCell id="-YfmG1kcdW99SMGR7qMT-6" value="encoder" style="shape=umlLifeline;perimeter=lifelinePerimeter;whiteSpace=wrap;html=1;container=1;dropTarget=0;collapsible=0;recursiveResize=0;outlineConnect=0;portConstraint=eastwest;newEdgeStyle={&quot;curved&quot;:0,&quot;rounded&quot;:0};" vertex="1" parent="1">
          <mxGeometry x="360" y="40" width="100" height="640" as="geometry" />
        </mxCell>
        <mxCell id="-YfmG1kcdW99SMGR7qMT-7" value="" style="html=1;points=[[0,0,0,0,5],[0,1,0,0,-5],[1,0,0,0,5],[1,1,0,0,-5]];perimeter=orthogonalPerimeter;outlineConnect=0;targetShapes=umlLifeline;portConstraint=eastwest;newEdgeStyle={&quot;curved&quot;:0,&quot;rounded&quot;:0};" vertex="1" parent="-YfmG1kcdW99SMGR7qMT-6">
          <mxGeometry x="45" y="80" width="10" height="530" as="geometry" />
        </mxCell>
        <mxCell id="OMKsyapgwfqjShEot9tB-1" value="notifyObservers&lt;br&gt;(attemptsPlayed)" style="html=1;verticalAlign=bottom;endArrow=block;curved=0;rounded=0;" edge="1" parent="-YfmG1kcdW99SMGR7qMT-6" source="-YfmG1kcdW99SMGR7qMT-7" target="-YfmG1kcdW99SMGR7qMT-7">
          <mxGeometry x="1" y="-56" width="80" relative="1" as="geometry">
            <mxPoint x="45" y="303.9999999999999" as="sourcePoint" />
            <mxPoint x="-185" y="303.9999999999999" as="targetPoint" />
            <mxPoint x="-55" y="46" as="offset" />
            <Array as="points">
              <mxPoint x="80" y="280" />
              <mxPoint x="80" y="320" />
            </Array>
          </mxGeometry>
        </mxCell>
        <mxCell id="-YfmG1kcdW99SMGR7qMT-8" value="game" style="shape=umlLifeline;perimeter=lifelinePerimeter;whiteSpace=wrap;html=1;container=1;dropTarget=0;collapsible=0;recursiveResize=0;outlineConnect=0;portConstraint=eastwest;newEdgeStyle={&quot;curved&quot;:0,&quot;rounded&quot;:0};" vertex="1" parent="1">
          <mxGeometry x="480" y="40" width="100" height="640" as="geometry" />
        </mxCell>
        <mxCell id="-YfmG1kcdW99SMGR7qMT-9" value="" style="html=1;points=[[0,0,0,0,5],[0,1,0,0,-5],[1,0,0,0,5],[1,1,0,0,-5]];perimeter=orthogonalPerimeter;outlineConnect=0;targetShapes=umlLifeline;portConstraint=eastwest;newEdgeStyle={&quot;curved&quot;:0,&quot;rounded&quot;:0};" vertex="1" parent="-YfmG1kcdW99SMGR7qMT-8">
          <mxGeometry x="45" y="80" width="10" height="530" as="geometry" />
        </mxCell>
        <mxCell id="-YfmG1kcdW99SMGR7qMT-10" value="startGameTurn&lt;br&gt;(sequence)" style="shape=umlFrame;whiteSpace=wrap;html=1;pointerEvents=0;width=100;height=30;" vertex="1" parent="1">
          <mxGeometry x="40" y="130" width="680" height="300" as="geometry" />
        </mxCell>
        <mxCell id="UvARxSq3PpZq1HrxtLBk-2" value="playTurn(sequence)" style="html=1;verticalAlign=bottom;endArrow=block;curved=0;rounded=0;" edge="1" parent="1">
          <mxGeometry width="80" relative="1" as="geometry">
            <mxPoint x="285" y="171" as="sourcePoint" />
            <mxPoint x="175" y="171" as="targetPoint" />
          </mxGeometry>
        </mxCell>
        <mxCell id="UvARxSq3PpZq1HrxtLBk-3" value="playTurn" style="shape=umlFrame;whiteSpace=wrap;html=1;pointerEvents=0;" vertex="1" parent="1">
          <mxGeometry x="60" y="190" width="630" height="210" as="geometry" />
        </mxCell>
        <mxCell id="UvARxSq3PpZq1HrxtLBk-4" value="addSequence&lt;br&gt;(sequence)" style="html=1;verticalAlign=bottom;endArrow=block;curved=0;rounded=0;" edge="1" parent="1">
          <mxGeometry x="0.6286" width="80" relative="1" as="geometry">
            <mxPoint x="175" y="220" as="sourcePoint" />
            <mxPoint x="525" y="220" as="targetPoint" />
            <mxPoint as="offset" />
          </mxGeometry>
        </mxCell>
        <mxCell id="UvARxSq3PpZq1HrxtLBk-5" value="evaluate&lt;br&gt;Sequence()" style="html=1;verticalAlign=bottom;endArrow=block;curved=0;rounded=0;" edge="1" parent="1">
          <mxGeometry x="0.5217" width="80" relative="1" as="geometry">
            <mxPoint x="175" y="251" as="sourcePoint" />
            <mxPoint x="405" y="251" as="targetPoint" />
            <mxPoint as="offset" />
          </mxGeometry>
        </mxCell>
        <mxCell id="UvARxSq3PpZq1HrxtLBk-6" value="return hint" style="html=1;verticalAlign=bottom;endArrow=open;dashed=1;endSize=8;curved=0;rounded=0;" edge="1" parent="1">
          <mxGeometry x="0.6087" relative="1" as="geometry">
            <mxPoint x="405" y="270" as="sourcePoint" />
            <mxPoint x="175" y="270" as="targetPoint" />
            <mxPoint as="offset" />
          </mxGeometry>
        </mxCell>
        <mxCell id="UvARxSq3PpZq1HrxtLBk-7" value="addHint&lt;br&gt;(hint)" style="html=1;verticalAlign=bottom;endArrow=block;curved=0;rounded=0;" edge="1" parent="1">
          <mxGeometry x="0.6286" width="80" relative="1" as="geometry">
            <mxPoint x="175" y="289" as="sourcePoint" />
            <mxPoint x="525" y="289" as="targetPoint" />
            <mxPoint as="offset" />
          </mxGeometry>
        </mxCell>
        <mxCell id="_WppM04FNoCOA2l4tw7f-3" value="viewFacade" style="shape=umlLifeline;perimeter=lifelinePerimeter;whiteSpace=wrap;html=1;container=1;dropTarget=0;collapsible=0;recursiveResize=0;outlineConnect=0;portConstraint=eastwest;newEdgeStyle={&quot;curved&quot;:0,&quot;rounded&quot;:0};" vertex="1" parent="1">
          <mxGeometry x="600" y="40" width="100" height="640" as="geometry" />
        </mxCell>
        <mxCell id="_WppM04FNoCOA2l4tw7f-4" value="" style="html=1;points=[[0,0,0,0,5],[0,1,0,0,-5],[1,0,0,0,5],[1,1,0,0,-5]];perimeter=orthogonalPerimeter;outlineConnect=0;targetShapes=umlLifeline;portConstraint=eastwest;newEdgeStyle={&quot;curved&quot;:0,&quot;rounded&quot;:0};" vertex="1" parent="_WppM04FNoCOA2l4tw7f-3">
          <mxGeometry x="45" y="80" width="10" height="530" as="geometry" />
        </mxCell>
        <mxCell id="OMKsyapgwfqjShEot9tB-2" value="update main view" style="html=1;verticalAlign=bottom;endArrow=block;curved=0;rounded=0;" edge="1" parent="1">
          <mxGeometry x="0.5217" width="80" relative="1" as="geometry">
            <mxPoint x="415" y="379.9999999999999" as="sourcePoint" />
            <mxPoint x="645" y="379.9999999999999" as="targetPoint" />
            <mxPoint as="offset" />
          </mxGeometry>
        </mxCell>
        <mxCell id="OMKsyapgwfqjShEot9tB-3" value="endGameTurn()" style="shape=umlFrame;whiteSpace=wrap;html=1;pointerEvents=0;width=100;height=30;" vertex="1" parent="1">
          <mxGeometry x="40" y="450" width="680" height="180" as="geometry" />
        </mxCell>
        <mxCell id="4OOnJW8AV3FkzG7YhF1J-1" value="endTurn()" style="html=1;verticalAlign=bottom;endArrow=block;curved=0;rounded=0;" edge="1" parent="1">
          <mxGeometry width="80" relative="1" as="geometry">
            <mxPoint x="285" y="479.9999999999999" as="sourcePoint" />
            <mxPoint x="175" y="479.9999999999999" as="targetPoint" />
            <mxPoint as="offset" />
          </mxGeometry>
        </mxCell>
        <mxCell id="4OOnJW8AV3FkzG7YhF1J-2" value="endTurn" style="shape=umlFrame;whiteSpace=wrap;html=1;pointerEvents=0;" vertex="1" parent="1">
          <mxGeometry x="60" y="495" width="630" height="115" as="geometry" />
        </mxCell>
        <mxCell id="4OOnJW8AV3FkzG7YhF1J-3" value="setAttempts&lt;br&gt;Played()" style="html=1;verticalAlign=bottom;endArrow=block;curved=0;rounded=0;" edge="1" parent="1">
          <mxGeometry x="0.6857" y="-1" width="80" relative="1" as="geometry">
            <mxPoint x="175" y="528.9999999999999" as="sourcePoint" />
            <mxPoint x="525" y="528.9999999999999" as="targetPoint" />
            <mxPoint as="offset" />
          </mxGeometry>
        </mxCell>
        <mxCell id="4OOnJW8AV3FkzG7YhF1J-5" value="increment" style="text;html=1;align=center;verticalAlign=middle;resizable=0;points=[];autosize=1;strokeColor=none;fillColor=none;" vertex="1" parent="1">
          <mxGeometry x="540" y="510" width="80" height="30" as="geometry" />
        </mxCell>
      </root>
    </mxGraphModel>
  </diagram>
  <diagram id="fiMhX-hDWE_qNqZ0fF6g" name="endGame">
    <mxGraphModel dx="1195" dy="697" grid="1" gridSize="10" guides="1" tooltips="1" connect="1" arrows="1" fold="1" page="1" pageScale="1" pageWidth="850" pageHeight="1100" math="0" shadow="0">
      <root>
        <mxCell id="0" />
        <mxCell id="1" parent="0" />
        <mxCell id="TMl2DxdPdafFjGOr8NzD-8" value="if decoder loose" style="verticalAlign=top;align=left;spacingTop=8;spacingLeft=2;spacingRight=12;shape=cube;size=10;direction=south;fontStyle=4;html=1;whiteSpace=wrap;" vertex="1" parent="1">
          <mxGeometry x="50" y="420" width="1010" height="170" as="geometry" />
        </mxCell>
        <mxCell id="ArKPZyIrEfX9HiMApys2-1" value="if decoder wins" style="verticalAlign=top;align=left;spacingTop=8;spacingLeft=2;spacingRight=12;shape=cube;size=10;direction=south;fontStyle=4;html=1;whiteSpace=wrap;" vertex="1" parent="1">
          <mxGeometry x="50" y="180" width="1010" height="220" as="geometry" />
        </mxCell>
        <mxCell id="aHahTvZMV3ks7bHIBklL-1" value="viewFacade" style="shape=umlLifeline;perimeter=lifelinePerimeter;whiteSpace=wrap;html=1;container=1;dropTarget=0;collapsible=0;recursiveResize=0;outlineConnect=0;portConstraint=eastwest;newEdgeStyle={&quot;curved&quot;:0,&quot;rounded&quot;:0};" vertex="1" parent="1">
          <mxGeometry x="120" y="40" width="100" height="640" as="geometry" />
        </mxCell>
        <mxCell id="aHahTvZMV3ks7bHIBklL-2" value="" style="html=1;points=[[0,0,0,0,5],[0,1,0,0,-5],[1,0,0,0,5],[1,1,0,0,-5]];perimeter=orthogonalPerimeter;outlineConnect=0;targetShapes=umlLifeline;portConstraint=eastwest;newEdgeStyle={&quot;curved&quot;:0,&quot;rounded&quot;:0};" vertex="1" parent="aHahTvZMV3ks7bHIBklL-1">
          <mxGeometry x="45" y="60" width="10" height="540" as="geometry" />
        </mxCell>
        <mxCell id="aHahTvZMV3ks7bHIBklL-3" value="playerController" style="shape=umlLifeline;perimeter=lifelinePerimeter;whiteSpace=wrap;html=1;container=1;dropTarget=0;collapsible=0;recursiveResize=0;outlineConnect=0;portConstraint=eastwest;newEdgeStyle={&quot;curved&quot;:0,&quot;rounded&quot;:0};" vertex="1" parent="1">
          <mxGeometry x="240" y="40" width="100" height="640" as="geometry" />
        </mxCell>
        <mxCell id="aHahTvZMV3ks7bHIBklL-4" value="" style="html=1;points=[[0,0,0,0,5],[0,1,0,0,-5],[1,0,0,0,5],[1,1,0,0,-5]];perimeter=orthogonalPerimeter;outlineConnect=0;targetShapes=umlLifeline;portConstraint=eastwest;newEdgeStyle={&quot;curved&quot;:0,&quot;rounded&quot;:0};" vertex="1" parent="aHahTvZMV3ks7bHIBklL-3">
          <mxGeometry x="45" y="60" width="10" height="540" as="geometry" />
        </mxCell>
        <mxCell id="aHahTvZMV3ks7bHIBklL-5" value="gameController" style="shape=umlLifeline;perimeter=lifelinePerimeter;whiteSpace=wrap;html=1;container=1;dropTarget=0;collapsible=0;recursiveResize=0;outlineConnect=0;portConstraint=eastwest;newEdgeStyle={&quot;curved&quot;:0,&quot;rounded&quot;:0};" vertex="1" parent="1">
          <mxGeometry x="360" y="40" width="100" height="640" as="geometry" />
        </mxCell>
        <mxCell id="aHahTvZMV3ks7bHIBklL-6" value="" style="html=1;points=[[0,0,0,0,5],[0,1,0,0,-5],[1,0,0,0,5],[1,1,0,0,-5]];perimeter=orthogonalPerimeter;outlineConnect=0;targetShapes=umlLifeline;portConstraint=eastwest;newEdgeStyle={&quot;curved&quot;:0,&quot;rounded&quot;:0};" vertex="1" parent="aHahTvZMV3ks7bHIBklL-5">
          <mxGeometry x="45" y="60" width="10" height="540" as="geometry" />
        </mxCell>
        <mxCell id="a7w2a0n3ylQCrZc2FM7k-1" value="turnController" style="shape=umlLifeline;perimeter=lifelinePerimeter;whiteSpace=wrap;html=1;container=1;dropTarget=0;collapsible=0;recursiveResize=0;outlineConnect=0;portConstraint=eastwest;newEdgeStyle={&quot;curved&quot;:0,&quot;rounded&quot;:0};" vertex="1" parent="1">
          <mxGeometry x="480" y="40" width="100" height="640" as="geometry" />
        </mxCell>
        <mxCell id="a7w2a0n3ylQCrZc2FM7k-2" value="" style="html=1;points=[[0,0,0,0,5],[0,1,0,0,-5],[1,0,0,0,5],[1,1,0,0,-5]];perimeter=orthogonalPerimeter;outlineConnect=0;targetShapes=umlLifeline;portConstraint=eastwest;newEdgeStyle={&quot;curved&quot;:0,&quot;rounded&quot;:0};" vertex="1" parent="a7w2a0n3ylQCrZc2FM7k-1">
          <mxGeometry x="45" y="60" width="10" height="540" as="geometry" />
        </mxCell>
        <mxCell id="ZJo9Oq-bxrN6KWj_q584-1" value="endGame()" style="shape=umlFrame;whiteSpace=wrap;html=1;pointerEvents=0;width=80;height=30;" vertex="1" parent="1">
          <mxGeometry x="40" y="130" width="1040" height="480" as="geometry" />
        </mxCell>
        <mxCell id="ZJo9Oq-bxrN6KWj_q584-2" value="" style="endArrow=open;endFill=1;endSize=12;html=1;rounded=0;entryX=0.041;entryY=-0.002;entryDx=0;entryDy=0;entryPerimeter=0;" edge="1" parent="1" source="a7w2a0n3ylQCrZc2FM7k-2" target="ZJo9Oq-bxrN6KWj_q584-1">
          <mxGeometry width="160" relative="1" as="geometry">
            <mxPoint x="190" y="190" as="sourcePoint" />
            <mxPoint x="350" y="190" as="targetPoint" />
            <Array as="points">
              <mxPoint x="110" y="110" />
            </Array>
          </mxGeometry>
        </mxCell>
        <mxCell id="rB5bnwmaLi58EQBdUZX9-1" value="mainView" style="shape=umlLifeline;perimeter=lifelinePerimeter;whiteSpace=wrap;html=1;container=1;dropTarget=0;collapsible=0;recursiveResize=0;outlineConnect=0;portConstraint=eastwest;newEdgeStyle={&quot;curved&quot;:0,&quot;rounded&quot;:0};" vertex="1" parent="1">
          <mxGeometry x="600" y="40" width="100" height="640" as="geometry" />
        </mxCell>
        <mxCell id="rB5bnwmaLi58EQBdUZX9-2" value="" style="html=1;points=[[0,0,0,0,5],[0,1,0,0,-5],[1,0,0,0,5],[1,1,0,0,-5]];perimeter=orthogonalPerimeter;outlineConnect=0;targetShapes=umlLifeline;portConstraint=eastwest;newEdgeStyle={&quot;curved&quot;:0,&quot;rounded&quot;:0};" vertex="1" parent="rB5bnwmaLi58EQBdUZX9-1">
          <mxGeometry x="45" y="60" width="10" height="540" as="geometry" />
        </mxCell>
        <mxCell id="rB5bnwmaLi58EQBdUZX9-3" value="disableSequence&lt;br&gt;CheckButton()" style="html=1;verticalAlign=bottom;endArrow=block;curved=0;rounded=0;" edge="1" parent="1">
          <mxGeometry x="0.766" width="80" relative="1" as="geometry">
            <mxPoint x="175" y="223.0000000000001" as="sourcePoint" />
            <mxPoint x="644.9999999999998" y="223.0000000000001" as="targetPoint" />
            <mxPoint as="offset" />
          </mxGeometry>
        </mxCell>
        <mxCell id="rB5bnwmaLi58EQBdUZX9-4" value="winThisGame()" style="shape=umlFrame;whiteSpace=wrap;html=1;pointerEvents=0;width=100;height=30;" vertex="1" parent="1">
          <mxGeometry x="60" y="260" width="970" height="90" as="geometry" />
        </mxCell>
        <mxCell id="rB5bnwmaLi58EQBdUZX9-6" value="" style="endArrow=open;endFill=1;endSize=12;html=1;rounded=0;entryX=0.047;entryY=-0.022;entryDx=0;entryDy=0;entryPerimeter=0;" edge="1" parent="1" source="aHahTvZMV3ks7bHIBklL-6" target="rB5bnwmaLi58EQBdUZX9-4">
          <mxGeometry width="160" relative="1" as="geometry">
            <mxPoint x="535" y="120" as="sourcePoint" />
            <mxPoint x="100" y="138" as="targetPoint" />
            <Array as="points">
              <mxPoint x="130" y="240" />
            </Array>
          </mxGeometry>
        </mxCell>
        <mxCell id="qR0JaIMzwYWxtrDZ5VsJ-1" value="gameFacade" style="shape=umlLifeline;perimeter=lifelinePerimeter;whiteSpace=wrap;html=1;container=1;dropTarget=0;collapsible=0;recursiveResize=0;outlineConnect=0;portConstraint=eastwest;newEdgeStyle={&quot;curved&quot;:0,&quot;rounded&quot;:0};" vertex="1" parent="1">
          <mxGeometry x="720" y="40" width="100" height="640" as="geometry" />
        </mxCell>
        <mxCell id="TMl2DxdPdafFjGOr8NzD-3" value="" style="html=1;points=[[0,0,0,0,5],[0,1,0,0,-5],[1,0,0,0,5],[1,1,0,0,-5]];perimeter=orthogonalPerimeter;outlineConnect=0;targetShapes=umlLifeline;portConstraint=eastwest;newEdgeStyle={&quot;curved&quot;:0,&quot;rounded&quot;:0};" vertex="1" parent="qR0JaIMzwYWxtrDZ5VsJ-1">
          <mxGeometry x="45" y="60" width="10" height="540" as="geometry" />
        </mxCell>
        <mxCell id="TMl2DxdPdafFjGOr8NzD-1" value="decoder" style="shape=umlLifeline;perimeter=lifelinePerimeter;whiteSpace=wrap;html=1;container=1;dropTarget=0;collapsible=0;recursiveResize=0;outlineConnect=0;portConstraint=eastwest;newEdgeStyle={&quot;curved&quot;:0,&quot;rounded&quot;:0};" vertex="1" parent="1">
          <mxGeometry x="840" y="40" width="100" height="640" as="geometry" />
        </mxCell>
        <mxCell id="TMl2DxdPdafFjGOr8NzD-2" value="" style="html=1;points=[[0,0,0,0,5],[0,1,0,0,-5],[1,0,0,0,5],[1,1,0,0,-5]];perimeter=orthogonalPerimeter;outlineConnect=0;targetShapes=umlLifeline;portConstraint=eastwest;newEdgeStyle={&quot;curved&quot;:0,&quot;rounded&quot;:0};" vertex="1" parent="TMl2DxdPdafFjGOr8NzD-1">
          <mxGeometry x="45" y="60" width="10" height="540" as="geometry" />
        </mxCell>
        <mxCell id="TMl2DxdPdafFjGOr8NzD-5" value="notify&lt;br&gt;Observers()" style="html=1;verticalAlign=bottom;endArrow=block;curved=0;rounded=0;" edge="1" parent="TMl2DxdPdafFjGOr8NzD-1" source="TMl2DxdPdafFjGOr8NzD-2" target="TMl2DxdPdafFjGOr8NzD-2">
          <mxGeometry x="0.2222" y="-40" width="80" relative="1" as="geometry">
            <mxPoint x="-65" y="274.0000000000002" as="sourcePoint" />
            <mxPoint x="45" y="274.0000000000002" as="targetPoint" />
            <Array as="points">
              <mxPoint x="90" y="260" />
              <mxPoint x="90" y="280" />
            </Array>
            <mxPoint x="40" y="40" as="offset" />
          </mxGeometry>
        </mxCell>
        <mxCell id="TMl2DxdPdafFjGOr8NzD-4" value="setPoints()" style="html=1;verticalAlign=bottom;endArrow=block;curved=0;rounded=0;" edge="1" parent="1">
          <mxGeometry width="80" relative="1" as="geometry">
            <mxPoint x="775" y="288.0000000000002" as="sourcePoint" />
            <mxPoint x="885" y="288.0000000000002" as="targetPoint" />
          </mxGeometry>
        </mxCell>
        <mxCell id="TMl2DxdPdafFjGOr8NzD-6" value="update mainView" style="html=1;verticalAlign=bottom;endArrow=block;curved=0;rounded=0;" edge="1" parent="1">
          <mxGeometry x="0.8451" y="-4" width="80" relative="1" as="geometry">
            <mxPoint x="885" y="334.0000000000002" as="sourcePoint" />
            <mxPoint x="175" y="334.0000000000002" as="targetPoint" />
            <mxPoint as="offset" />
          </mxGeometry>
        </mxCell>
        <mxCell id="TMl2DxdPdafFjGOr8NzD-7" value="showVictory&lt;br&gt;Message()" style="html=1;verticalAlign=bottom;endArrow=block;curved=0;rounded=0;" edge="1" parent="1">
          <mxGeometry x="0.766" width="80" relative="1" as="geometry">
            <mxPoint x="175" y="384.0000000000002" as="sourcePoint" />
            <mxPoint x="645" y="384.0000000000002" as="targetPoint" />
            <mxPoint as="offset" />
          </mxGeometry>
        </mxCell>
        <mxCell id="TMl2DxdPdafFjGOr8NzD-10" value="disableSequence&lt;br&gt;CheckButton()" style="html=1;verticalAlign=bottom;endArrow=block;curved=0;rounded=0;" edge="1" parent="1">
          <mxGeometry x="0.766" width="80" relative="1" as="geometry">
            <mxPoint x="175" y="466.0000000000002" as="sourcePoint" />
            <mxPoint x="645" y="466.0000000000002" as="targetPoint" />
            <mxPoint as="offset" />
          </mxGeometry>
        </mxCell>
        <mxCell id="TMl2DxdPdafFjGOr8NzD-11" value="looseThisGame()" style="shape=umlFrame;whiteSpace=wrap;html=1;pointerEvents=0;width=100;height=30;" vertex="1" parent="1">
          <mxGeometry x="60" y="500" width="970" height="70" as="geometry" />
        </mxCell>
        <mxCell id="TMl2DxdPdafFjGOr8NzD-13" value="" style="endArrow=open;endFill=1;endSize=12;html=1;rounded=0;entryX=0.047;entryY=-0.022;entryDx=0;entryDy=0;entryPerimeter=0;" edge="1" parent="1" source="aHahTvZMV3ks7bHIBklL-6">
          <mxGeometry width="160" relative="1" as="geometry">
            <mxPoint x="399" y="482" as="sourcePoint" />
            <mxPoint x="100" y="500" as="targetPoint" />
            <Array as="points">
              <mxPoint x="130" y="482" />
            </Array>
          </mxGeometry>
        </mxCell>
        <mxCell id="TMl2DxdPdafFjGOr8NzD-14" value="Encoder" style="shape=umlLifeline;perimeter=lifelinePerimeter;whiteSpace=wrap;html=1;container=1;dropTarget=0;collapsible=0;recursiveResize=0;outlineConnect=0;portConstraint=eastwest;newEdgeStyle={&quot;curved&quot;:0,&quot;rounded&quot;:0};" vertex="1" parent="1">
          <mxGeometry x="960" y="40" width="100" height="640" as="geometry" />
        </mxCell>
        <mxCell id="TMl2DxdPdafFjGOr8NzD-15" value="" style="html=1;points=[[0,0,0,0,5],[0,1,0,0,-5],[1,0,0,0,5],[1,1,0,0,-5]];perimeter=orthogonalPerimeter;outlineConnect=0;targetShapes=umlLifeline;portConstraint=eastwest;newEdgeStyle={&quot;curved&quot;:0,&quot;rounded&quot;:0};" vertex="1" parent="TMl2DxdPdafFjGOr8NzD-14">
          <mxGeometry x="45" y="60" width="10" height="540" as="geometry" />
        </mxCell>
        <mxCell id="TMl2DxdPdafFjGOr8NzD-18" value="setPoints()" style="html=1;verticalAlign=bottom;endArrow=block;curved=0;rounded=0;" edge="1" parent="1">
          <mxGeometry x="0.5217" width="80" relative="1" as="geometry">
            <mxPoint x="775" y="524.0000000000002" as="sourcePoint" />
            <mxPoint x="1005" y="524.0000000000002" as="targetPoint" />
            <mxPoint as="offset" />
          </mxGeometry>
        </mxCell>
        <mxCell id="TMl2DxdPdafFjGOr8NzD-19" value="showLoose&lt;br&gt;Message()" style="html=1;verticalAlign=bottom;endArrow=block;curved=0;rounded=0;" edge="1" parent="1">
          <mxGeometry x="0.766" width="80" relative="1" as="geometry">
            <mxPoint x="175" y="549.0000000000002" as="sourcePoint" />
            <mxPoint x="645" y="549.0000000000002" as="targetPoint" />
            <mxPoint as="offset" />
          </mxGeometry>
        </mxCell>
      </root>
    </mxGraphModel>
  </diagram>
</mxfile>
